<svg width="14" height="11" viewBox="0 0 14 11" fill="none" xmlns="http://www.w3.org/2000/svg">
    <path d="M13.9958 3.56936H12.4923C11.6646 1.45188 9.43891 0 6.50377 0H1.67662V3.56936H0V4.84996H1.67662V6.19285H0V7.47346H1.67662V11H6.50377C9.40513 11 11.6139 9.5598 12.4627 7.47346H13.9958V6.19285H12.8006C12.8302 5.96709 12.8471 5.73355 12.8471 5.5V5.46886C12.8471 5.25867 12.8344 5.05237 12.8133 4.84996H14V3.56936H13.9958ZM3.02805 1.14048H6.50377C8.65762 1.14048 10.2582 2.11748 10.9973 3.56546H3.02805V1.14048ZM6.50377 9.84784H3.02805V7.46957H10.9888C10.2456 8.8942 8.64917 9.84784 6.50377 9.84784ZM11.4492 5.52725C11.4492 5.75301 11.4323 5.97488 11.3985 6.18896H3.02805V4.84607H11.4027C11.4323 5.05626 11.4492 5.27424 11.4492 5.49611V5.52725Z" fill="#F9A606"/>
</svg>
