<svg width="9" height="15" viewBox="0 0 9 15" fill="none" xmlns="http://www.w3.org/2000/svg">
    <path fill-rule="evenodd" clip-rule="evenodd" d="M4.37131 1.07825C4.34213 1.14809 3.46031 2.62879 2.41172 4.36871C1.36313 6.10859 0.496463 7.55496 0.48574 7.58289C0.471815 7.61919 1.04148 7.97358 2.48325 8.82549L4.5003 10.0173L6.51678 8.82485C7.96546 7.96815 8.52775 7.61797 8.51368 7.58127C8.44082 7.39135 4.51963 0.951233 4.47684 0.951233C4.44799 0.951233 4.40049 1.00837 4.37131 1.07825ZM0.490526 8.44002C0.568247 8.5729 4.48364 14.0818 4.50002 14.0813C4.52707 14.0805 8.53016 8.42368 8.51469 8.40817C8.50008 8.3936 4.75833 10.5974 4.60224 10.7125L4.50657 10.7831L2.56925 9.63927C1.50371 9.01019 0.592571 8.4701 0.544499 8.43912C0.464799 8.38777 0.460013 8.38784 0.490526 8.44002Z" fill="#6768AB"/>
</svg>
