<svg width="16" height="15" viewBox="0 0 16 15" fill="none" xmlns="http://www.w3.org/2000/svg">
    <path d="M6 14.6697C6 14.9149 5.8 15.0539 5.56667 14.9803C2.33333 13.9666 0 11.0072 0 7.5C0 4.00101 2.33333 1.03342 5.56667 0.0196919C5.80833 -0.0538849 6 0.0850934 6 0.330349V0.943489C6 1.10699 5.875 1.29502 5.71667 1.35225C3.15833 2.27605 1.33333 4.68773 1.33333 7.5C1.33333 10.3204 3.15833 12.724 5.71667 13.6396C5.875 13.6968 6 13.8848 6 14.0483V14.6697Z" fill="#2775CA"/>
    <path d="M8.71927 12.6562C8.71927 12.8453 8.56833 13 8.38386 13H7.71306C7.52859 13 7.37766 12.8453 7.37766 12.6562V11.5734C5.91027 11.3672 5.19754 10.5336 5.00469 9.38203C4.97115 9.18437 5.12208 9.0125 5.31493 9.0125H6.07797C6.23729 9.0125 6.37145 9.13281 6.40499 9.2875C6.54754 9.96641 6.93325 10.4906 8.10716 10.4906C8.97082 10.4906 9.59131 9.99219 9.59131 9.25312C9.59131 8.51406 9.23075 8.23047 7.95623 8.01562C6.07797 7.75781 5.18916 7.17344 5.18916 5.66953C5.18916 4.50937 6.05282 3.59844 7.37766 3.40937V2.34375C7.37766 2.15469 7.52859 2 7.71306 2H8.38386C8.56833 2 8.71927 2.15469 8.71927 2.34375V3.43516C9.80094 3.63281 10.4885 4.26016 10.7149 5.30859C10.7568 5.50625 10.6059 5.68672 10.4047 5.68672H9.70032C9.54939 5.68672 9.42361 5.58359 9.38168 5.4375C9.18883 4.77578 8.72765 4.48359 7.92269 4.48359C7.03387 4.48359 6.57269 4.92187 6.57269 5.54062C6.57269 6.19375 6.83263 6.52031 8.19939 6.71797C10.0441 6.97578 11 7.51719 11 9.12422C11 10.3445 10.1112 11.3328 8.72765 11.5562V12.6562H8.71927Z" fill="#2775CA"/>
    <path d="M10.4333 14.9803C10.1917 15.0539 10 14.9148 10 14.6693V14.0555C10 13.8754 10.1083 13.7036 10.2833 13.6463C12.8333 12.7297 14.6667 10.3153 14.6667 7.5C14.6667 4.67648 12.8417 2.27035 10.2833 1.35372C10.125 1.29644 10 1.1082 10 0.944519V0.33071C10 0.0851863 10.2 -0.0539437 10.4333 0.0197134C13.6667 1.01818 16 3.98901 16 7.49182C16 11.0028 13.6667 13.9655 10.4333 14.9803Z" fill="#2775CA"/>
</svg>
