<svg width="15" height="13" viewBox="0 0 15 13" fill="none" xmlns="http://www.w3.org/2000/svg">
    <path fill-rule="evenodd" clip-rule="evenodd" d="M9.026 6.98818C8.94076 6.99419 8.5004 7.01892 7.51811 7.01892C6.73683 7.01892 6.18211 6.99686 5.9875 6.98818C2.96818 6.86321 0.714522 6.36868 0.714522 5.77659C0.714522 5.1845 2.96818 4.69064 5.9875 4.56367V6.49566C6.18495 6.50902 6.75032 6.54043 7.53161 6.54043C8.46915 6.54043 8.93863 6.50368 9.02315 6.49632V4.565C12.0361 4.69131 14.2848 5.18583 14.2848 5.77659C14.2848 6.36735 12.0368 6.86187 9.02315 6.98751L9.026 6.98818ZM9.026 4.36519V2.63635H13.2307V0H1.78275V2.63635H5.98679V4.36452C2.56972 4.51221 0 5.14908 0 5.91225C0 6.67542 2.56972 7.31162 5.98679 7.45998V13H9.02528V7.45798C12.4345 7.31029 15 6.67409 15 5.91158C15 5.14908 12.4367 4.51288 9.02528 4.36452L9.026 4.36519Z" fill="#50AF95"/>
</svg>
